<svg width="382" height="117" viewBox="0 0 382 117" fill="none" xmlns="http://www.w3.org/2000/svg">
<path d="M67.584 0.951996V13.624H54.912V0.951996H67.584ZM84.48 17.848V30.52H71.808V17.848H84.48ZM50.688 0.951996V13.624H38.016V0.951996H50.688ZM84.48 34.744V47.416H71.808V34.744H84.48ZM33.792 0.951996V13.624H21.12V0.951996H33.792ZM84.48 51.64V64.312H71.808V51.64H84.48ZM67.584 51.64V64.312H54.912V51.64H67.584ZM84.48 68.536V81.208H71.808V68.536H84.48ZM16.896 17.848V30.52H4.224V17.848H16.896ZM50.688 51.64V64.312H38.016V51.64H50.688ZM84.48 85.432V98.104H71.808V85.432H84.48ZM16.896 34.744V47.416H4.224V34.744H16.896ZM33.792 51.64V64.312H21.12V51.64H33.792ZM84.48 102.328V115H71.808V102.328H84.48ZM16.896 51.64V64.312H4.224V51.64H16.896ZM16.896 68.536V81.208H4.224V68.536H16.896ZM16.896 85.432V98.104H4.224V85.432H16.896ZM16.896 102.328V115H4.224V102.328H16.896Z" fill="white"/>
<path d="M99.632 115V36.6H147.008V43.096H106.8V72.44H143.872V78.936H106.8V108.504H147.456V115H99.632ZM154.219 115V36.6H168.443L200.475 110.744H201.819V36.6H208.987V115H194.763L162.731 40.744H161.387V115H154.219Z" fill="white"/>
<path d="M220.632 115V36.6H268.008V43.096H227.8V72.44H264.872V78.936H227.8V108.504H268.456V115H220.632Z" fill="white"/>
<path d="M289.96 102.12L310.792 41.416C311.987 38.1307 312.733 36.488 313.032 36.488C313.629 36.488 314.675 38.5413 316.168 42.648L340.472 107.16C341.293 109.549 343.16 110.744 346.072 110.744C347.789 110.744 349.059 110.072 349.88 108.728C350.179 108.205 350.477 107.683 350.776 107.16C351.075 106.563 351.299 106.264 351.448 106.264C352.12 106.264 352.456 106.712 352.456 107.608C352.456 108.504 351.299 110.109 348.984 112.424C346.669 114.739 343.459 115.896 339.352 115.896C334.2 115.896 330.765 113.619 329.048 109.064L322.216 90.808H296.12L291.528 104.136C289.96 108.691 288.019 111.864 285.704 113.656C283.464 115.373 280.664 116.232 277.304 116.232C272.824 116.232 269.24 114.552 266.552 111.192C263.864 107.832 262.52 104.211 262.52 100.328C262.52 96.3707 263.528 93.1973 265.544 90.808C267.485 88.4187 270.024 87.224 273.16 87.224C274.653 87.224 276.221 87.672 277.864 88.568C280.328 89.912 281.56 91.3307 281.56 92.824C281.56 93.4213 281.373 93.72 281 93.72C280.701 93.72 280.179 93.3467 279.432 92.6C277.267 90.4347 274.989 89.352 272.6 89.352C270.211 89.352 268.307 90.3973 266.888 92.488C265.469 94.5787 264.76 97.3413 264.76 100.776C264.76 104.136 266.029 107.197 268.568 109.96C271.107 112.723 273.981 114.104 277.192 114.104C280.403 114.104 282.904 113.283 284.696 111.64C286.563 109.923 288.317 106.749 289.96 102.12ZM308.664 54.296L296.792 88.68H321.432L308.664 54.296Z" fill="white"/>
<path d="M347.68 115V90.2266H353.641V99.0859C353.641 101.31 353.914 103.151 354.461 104.609C355.044 106.068 355.755 107.234 356.594 108.109C357.469 108.984 358.398 109.604 359.383 109.969C360.404 110.333 361.352 110.516 362.227 110.516C363.466 110.516 364.651 110.26 365.781 109.75C366.911 109.24 367.914 108.438 368.789 107.344C369.664 106.214 370.357 104.755 370.867 102.969C371.378 101.182 371.633 98.9948 371.633 96.4062C371.633 93.9271 371.305 91.7943 370.648 90.0078C369.992 88.1849 369.117 86.599 368.023 85.25C366.93 83.8646 365.69 82.6432 364.305 81.5859C362.919 80.5286 361.497 79.4714 360.039 78.4141C358.581 77.3203 357.159 76.1901 355.773 75.0234C354.388 73.8568 353.148 72.4896 352.055 70.9219C350.961 69.3177 350.086 67.4583 349.43 65.3438C348.773 63.1927 348.445 60.6589 348.445 57.7422C348.445 54.2057 348.865 51.2161 349.703 48.7734C350.542 46.3307 351.617 44.3438 352.93 42.8125C354.242 41.2812 355.682 40.1875 357.25 39.5312C358.854 38.8385 360.404 38.4922 361.898 38.4922C362.664 38.4922 363.448 38.5833 364.25 38.7656C365.089 38.9479 365.891 39.2214 366.656 39.5859C367.458 39.9505 368.206 40.4245 368.898 41.0078C369.591 41.5547 370.211 42.2109 370.758 42.9766V39.8594H376.719V62.3359H370.758V53.9688C370.758 52.1094 370.503 50.5781 369.992 49.375C369.518 48.1354 368.917 47.151 368.188 46.4219C367.495 45.6927 366.747 45.1823 365.945 44.8906C365.143 44.599 364.432 44.4531 363.812 44.4531C362.682 44.4531 361.607 44.7083 360.586 45.2188C359.602 45.7292 358.727 46.5312 357.961 47.625C357.232 48.6823 356.648 50.0312 356.211 51.6719C355.773 53.3125 355.555 55.263 355.555 57.5234C355.555 59.7839 355.883 61.7526 356.539 63.4297C357.232 65.0703 358.107 66.5469 359.164 67.8594C360.258 69.1354 361.497 70.3203 362.883 71.4141C364.305 72.5078 365.727 73.6016 367.148 74.6953C368.607 75.7891 370.029 76.974 371.414 78.25C372.836 79.4896 374.076 80.9297 375.133 82.5703C376.227 84.2109 377.102 86.125 377.758 88.3125C378.451 90.4635 378.797 93.0156 378.797 95.9688C378.797 100.161 378.323 103.589 377.375 106.25C376.427 108.911 375.242 111.008 373.82 112.539C372.398 114.034 370.849 115.055 369.172 115.602C367.495 116.185 365.927 116.477 364.469 116.477C359.875 116.477 356.266 114.708 353.641 111.172V115H347.68Z" fill="white"/>
</svg>
